<svg version="1.2" xmlns="http://www.w3.org/2000/svg" viewBox="0 0 72 50" width="72" height="50">
	<title>icon-quote-svg</title>
	<style>
		.s0 { fill: #33576e } 
	</style>
	<path id="Layer" fill-rule="evenodd" class="s0" d="m66.9 25.2q-1.6-1.8-4.1-3-2.4-1.1-5.5-1.1h-0.7q1.6-5.1 5.6-10.7 4-5.6 9.6-9.9h-15.5q-3.3 3.1-6.3 6.9-3 3.7-5.3 7.8-2.3 4.1-3.6 8.4-1.3 4.3-1.3 8.7v2q0 6.2 3.8 10.7 3.7 4.5 11.4 4.4 7.3 0.1 11.2-4.3 3.9-4.3 3.9-10.5v-0.6q0-2.3-0.8-4.6-0.8-2.3-2.4-4.2zm-34.7-24.6h-15.5q-3.3 3-6.3 6.8-3 3.7-5.3 7.8-2.3 4.1-3.6 8.4-1.3 4.3-1.3 8.7v2q0 6.2 3.8 10.7 3.7 4.5 11.4 4.5 7.3 0 11.2-4.4 3.9-4.3 3.9-10.5v-0.6q0-2.3-0.8-4.6-0.8-2.3-2.4-4.2-1.6-1.8-4.1-3-2.4-1.1-5.5-1.1h-0.7q1.6-5.1 5.6-10.7 4-5.6 9.6-9.8z"/>
</svg>