<svg width="285" height="146" viewBox="0 0 285 146" fill="none" xmlns="http://www.w3.org/2000/svg">
<path fill-rule="evenodd" clip-rule="evenodd" d="M190.388 0.420947C182.56 0.647255 180.998 0.86549 178.748 2.04841C175.418 3.7987 173.259 6.4596 168.907 14.1769C167.569 16.5501 165.057 18.019 162.333 18.021L148.506 18.0314C115.397 18.0561 50.8235 18.4958 48.2088 18.714C45.9706 18.9012 45.41 19.0448 43.8478 19.8316C39.8751 21.8329 38.8471 23.3254 24.9574 47.2544C5.34721 81.0395 0.817118 89.1939 0.613617 91.0751C0.445582 92.6301 1.07223 93.7049 2.39621 94.1314C3.0725 94.3491 7.38981 94.4587 18.2301 94.5331C34.0565 94.6417 40.0419 94.4352 42.3125 93.7018C44.4191 93.0211 47.1798 91.0266 48.362 89.3312C50.4686 86.3092 57.4811 74.5066 70.0906 52.7592C78.7369 37.8465 83.3066 30.3742 84.5504 29.1142C85.4123 28.241 86.4983 27.5132 88.097 26.7371C91.6037 25.0348 93.578 24.7742 95.4871 25.7617C96.2057 26.1333 97.1121 27.7505 97.1219 28.6782C97.1354 29.9453 92.4805 38.454 76.5867 66.2154C71.0469 75.8919 66.7553 83.6558 64.8333 87.4781C63.2909 90.5459 63.1767 90.8794 63.3591 91.7822C63.6575 93.2589 63.8696 93.6318 64.5611 93.8948C65.7451 94.3452 72.7759 94.5803 85.02 94.5793C97.8978 94.5784 102.796 94.3736 104.862 93.7502C106.352 93.3005 109.472 91.3195 110.368 90.2535C111.489 88.9219 122.467 70.4974 131.723 54.4153C138.051 43.4196 144.908 32.3153 147.093 29.5228C149.086 26.9761 151.797 25.6359 155.393 25.4191C157.136 25.3139 157.641 25.3663 158.157 25.7044C158.954 26.2268 159.741 27.5019 159.742 28.2731C159.744 29.4066 155.272 37.5366 140.42 63.4018C138.102 67.4387 133.619 75.3578 130.457 80.9996C122.277 95.5991 120.474 98.4339 118.112 100.42C115.408 102.692 113.328 103.424 108.256 103.886C103.154 104.351 102.769 104.624 103.734 107.088C106.162 113.285 122.015 139.962 124.64 142.268C125.782 143.271 128.544 144.658 130.321 145.121C133.294 145.895 137.473 145.388 140.417 143.896C142.468 142.856 143.808 141.263 146.697 136.432C151.239 128.835 165.852 103.807 174.837 88.2346C204.763 36.3725 209.038 28.9214 212.946 21.8099C218.466 11.7626 221.419 8.5228 225.897 7.59775C228.187 7.12434 230.235 7.25719 231.149 7.93782C232.018 8.58494 232.738 10.3986 232.542 11.445C232.392 12.2455 230.689 15.3045 222.483 29.5167C220.346 33.2171 217.778 37.676 216.776 39.4253C215.774 41.1746 213.276 45.5234 211.226 49.0893C206.694 56.971 201.344 66.4711 199.62 69.6991C198.16 72.4326 197.971 73.7486 198.856 74.9932C199.834 76.3662 199.996 76.3758 221.132 76.2977C228.633 76.27 233.046 76.2688 235.811 76.2308C238.815 76.1896 240.214 75.5124 241.314 74.7784C242.415 74.0444 244.231 72.8931 245.724 71.0268C249.608 66.1711 254.625 57.9256 269.864 31.3516C281.232 11.5287 284.485 5.35301 284.485 3.59661C284.485 2.38898 283.859 1.1652 283.09 0.871852C282.69 0.718696 278.552 0.520034 273.112 0.392322C262.083 0.133719 199.581 0.155248 190.388 0.420947Z" fill="#1B1B1E"/>
</svg>
