<svg width="285" height="146" viewBox="0 0 285 146" fill="none" xmlns="http://www.w3.org/2000/svg">
<path fill-rule="evenodd" clip-rule="evenodd" d="M190.388 0.804194C182.56 1.0305 180.998 1.24874 178.748 2.43166C175.418 4.18194 173.259 6.84285 168.907 14.5601C167.569 16.9333 165.057 18.4023 162.333 18.4043L148.506 18.4147C115.397 18.4394 50.8235 18.879 48.2088 19.0973C45.9706 19.2844 45.41 19.4281 43.8478 20.2149C39.8751 22.2162 38.8471 23.7086 24.9574 47.6376C5.34721 81.4227 0.817118 89.5772 0.613617 91.4583C0.445582 93.0134 1.07223 94.0882 2.39621 94.5146C3.0725 94.7324 7.38981 94.842 18.2301 94.9163C34.0565 95.025 40.0419 94.8185 42.3125 94.085C44.4191 93.4044 47.1798 91.4099 48.362 89.7144C50.4686 86.6924 57.4811 74.8899 70.0906 53.1424C78.7369 38.2298 83.3066 30.7574 84.5504 29.4975C85.4123 28.6243 86.4983 27.8964 88.097 27.1204C91.6037 25.418 93.578 25.1575 95.4871 26.1449C96.2057 26.5165 97.1121 28.1337 97.1219 29.0615C97.1354 30.3286 92.4805 38.8373 76.5867 66.5986C71.0469 76.2751 66.7553 84.0391 64.8333 87.8614C63.2909 90.9291 63.1767 91.2626 63.3591 92.1654C63.6575 93.6422 63.8696 94.015 64.5611 94.278C65.7451 94.7284 72.7759 94.9636 85.02 94.9626C97.8978 94.9616 102.796 94.7568 104.862 94.1334C106.352 93.6838 109.472 91.7028 110.368 90.6368C111.489 89.3051 122.467 70.8806 131.723 54.7985C138.051 43.8029 144.908 32.6986 147.093 29.906C149.086 27.3594 151.797 26.0191 155.393 25.8024C157.136 25.6972 157.641 25.7495 158.157 26.0877C158.954 26.61 159.741 27.8852 159.742 28.6563C159.744 29.7898 155.272 37.9198 140.42 63.7851C138.102 67.8219 133.619 75.741 130.457 81.3828C122.277 95.9823 120.474 98.8172 118.112 100.803C115.408 103.075 113.328 103.807 108.256 104.269C103.154 104.734 102.769 105.007 103.734 107.471C106.162 113.668 122.015 140.345 124.64 142.651C125.782 143.654 128.544 145.041 130.321 145.504C133.294 146.278 137.473 145.771 140.417 144.279C142.468 143.24 143.808 141.646 146.697 136.816C151.239 129.218 165.852 104.19 174.837 88.6179C204.763 36.7557 209.038 29.3047 212.946 22.1932C218.466 12.1458 221.419 8.90605 225.897 7.981C228.187 7.50758 230.235 7.64043 231.149 8.32107C232.018 8.96819 232.738 10.7818 232.542 11.8282C232.392 12.6288 230.689 15.6877 222.483 29.8999C220.346 33.6004 217.778 38.0593 216.776 39.8086C215.774 41.5579 213.276 45.9067 211.226 49.4726C206.694 57.3542 201.344 66.8543 199.62 70.0823C198.16 72.8159 197.971 74.1319 198.856 75.3765C199.834 76.7495 199.996 76.759 221.132 76.681C228.633 76.6532 233.046 76.652 235.811 76.6141C238.815 76.5728 240.214 75.8956 241.314 75.1617C242.415 74.4277 244.231 73.2763 245.724 71.4101C249.608 66.5543 254.625 58.3089 269.864 31.7349C281.232 11.9119 284.485 5.73626 284.485 3.97986C284.485 2.77222 283.859 1.54844 283.09 1.2551C282.69 1.10194 278.552 0.903281 273.112 0.77557C262.083 0.516966 199.581 0.538495 190.388 0.804194Z" fill="#FE5000"/>
</svg>
