<svg width="1157" height="253" viewBox="0 0 1157 253" fill="none" xmlns="http://www.w3.org/2000/svg">
<path fill-rule="evenodd" clip-rule="evenodd" d="M203.014 49.5475C195.767 51.5135 191.263 53.4635 186.69 56.6135C185.202 57.6385 181.355 58.5635 177.189 58.8995C166.121 59.7925 159.588 62.7745 151.154 70.7865C145.069 76.5665 142.973 79.4735 138.524 88.3005C135.59 94.1215 131.709 100.508 129.899 102.493C119.349 114.063 118.148 129.927 126.667 145.182C129.316 149.925 129.459 150.773 128.962 158.745C128.178 171.318 129.485 173.646 146.653 190.262C154.664 198.015 160.987 204.959 161.349 206.399C161.698 207.79 161.237 212.122 160.324 216.025C157.473 228.217 158.712 234.136 164.667 236.772C166.33 237.508 167.69 238.45 167.69 238.866C167.69 239.282 169.152 239.596 170.94 239.564C176.722 239.462 180.26 235.97 187.564 223.157C191.315 216.577 195.61 210.277 197.109 209.157C199.268 207.544 201.946 207.001 210.012 206.54C221.339 205.891 225.83 204.201 232.692 198.001C236.974 194.132 240.69 185.842 240.69 180.156C240.69 176.77 240.697 176.765 246.44 176.123C254.786 175.19 267.144 172.019 273.149 169.269C279.96 166.151 285.182 160.821 287.318 154.808L289.036 149.97L295.643 148.837C310.623 146.268 318.06 140.474 322.23 128.122C323.894 123.194 324.5 120.5 323.184 116.258C322.325 114.612 321.69 110.745 321.69 107.168C321.69 99.3115 318.498 86.6775 315.009 80.7235C304.031 61.9915 285.308 53.7145 252.69 53.1745C239.609 52.9585 236.281 52.5775 231.366 50.7335C222.951 47.5765 211.97 47.1175 203.014 49.5475ZM202.355 58.5375C199.146 59.5945 196.305 60.6745 196.041 60.9385C195.777 61.2025 197.657 62.4645 200.218 63.7435C208.16 67.7105 210.836 71.7815 211.92 81.5515C212.146 83.5875 213.006 84.1635 217.231 85.1115C231.296 88.2665 243.304 98.6085 238.49 103.422C236.638 105.274 235.538 104.924 229.904 100.69C224.258 96.4485 214.585 92.3435 211.37 92.8245C210.07 93.0195 208.894 94.5095 207.976 97.1225C206.653 100.891 206.689 102.795 208.256 111.827C208.841 115.199 208.67 115.589 206.351 116.171C203.192 116.964 202.099 116.314 200.104 112.455C197.86 108.116 198.026 100.209 200.53 92.2675C201.718 88.4965 202.69 83.2325 202.69 80.5685C202.69 76.2735 202.322 75.4455 199.44 73.2695C192.593 68.0985 178.876 66.1575 169.378 69.0155C162.44 71.1035 155.35 76.8605 150.229 84.5635C145.358 91.8905 144.59 94.2595 147.44 93.1635C151.59 91.5695 165.211 91.4155 169.486 92.9145C173.748 94.4085 173.829 94.3935 179.428 91.0215C182.532 89.1525 185.466 87.6225 185.947 87.6225C188.251 87.6225 190.69 89.9225 190.69 92.0955C190.69 93.9445 189.554 95.1155 185.76 97.1805C180.19 100.212 175.582 105.449 172.373 112.397C170.6 116.233 170.198 118.909 170.231 126.622C170.266 134.904 170.73 137.419 173.846 146.237C177.684 157.097 177.562 159.622 173.197 159.622C170.025 159.622 168.404 157.09 165.128 147.021C162.625 139.325 162.178 138.624 159.793 138.644C155.716 138.678 149.583 141.987 144.94 146.658C142.603 149.01 140.696 151.201 140.703 151.528C140.738 153.158 155.803 161.704 160.037 162.494C164.967 163.416 173.449 162.333 185.19 159.283C197.007 156.214 208.224 155.112 214.457 156.409C220.801 157.728 231.681 162.85 234.309 165.753C236.285 167.936 242.859 168.236 252.256 166.571C269.013 163.601 279.69 157.084 279.69 149.825C279.69 145.387 272.254 145.55 255.894 150.347C244.818 153.594 241.844 154.073 232.69 154.086C217.542 154.107 205.438 149.954 189.94 139.416C185.56 136.437 184.437 133.275 186.89 130.822C188.733 128.979 190.443 129.356 195.25 132.664C197.682 134.336 203.518 137.551 208.219 139.807C217.79 144.399 218.517 144.347 225.067 138.596C230.867 133.504 229.445 129.666 219.816 124.419C216.578 122.654 215.782 119.93 217.89 117.822C219.746 115.966 222.608 116.384 227.44 119.216L231.866 121.81L238.528 118.526C243.996 115.832 246.674 115.165 253.471 114.806C260.414 114.439 262.07 114.656 263.721 116.15C267.899 119.931 264.648 124.139 258.279 123.194C253.825 122.533 243.684 124.746 239.94 127.196C238.459 128.165 237.69 129.663 237.69 131.58C237.69 135.67 236.013 139.643 232.876 142.983L230.19 145.843L236.69 145.407C240.265 145.167 248.682 143.43 255.394 141.547C266.161 138.525 267.67 137.836 268.209 135.689C269.987 128.609 281.299 114.622 285.247 114.622C287.243 114.622 289.69 117.046 289.69 119.023C289.69 119.316 287.668 121.831 285.198 124.613C282.727 127.395 279.797 131.452 278.687 133.629L276.668 137.586L280.429 139.19C286.085 141.603 297.711 140.705 304.284 137.348C310.374 134.238 312.874 130.767 313.466 124.6C313.885 120.238 313.659 119.749 308.72 114.345C305.267 110.567 301.311 107.576 296.883 105.396C290.526 102.267 289.723 102.123 278.711 102.14C269.271 102.155 266.113 102.562 261.225 104.39C254.796 106.795 251.168 107.205 250.197 105.634C249.862 105.091 248.939 102.158 248.147 99.1175C246.009 90.9115 242.071 83.8255 238.405 81.5905C236.22 80.2585 233.387 79.6285 229.562 79.6265C223.235 79.6225 221.104 78.0945 222.067 74.2545C223.625 68.0475 239.313 69.9245 246.779 77.2105L250.368 80.7135L257.779 76.7955C270.124 70.2685 276.322 68.0725 278.141 69.5815C280.004 71.1275 280.176 75.0115 278.44 76.3195C277.753 76.8375 274.265 78.5225 270.69 80.0635C267.115 81.6045 261.881 84.1625 259.06 85.7485L253.929 88.6325L255.217 92.3775C255.925 94.4375 256.883 96.1185 257.347 96.1135C257.811 96.1085 262.11 95.2545 266.902 94.2155C281.764 90.9915 294.532 93.2895 306.58 101.354L312.97 105.632L312.351 100.406C310.383 83.7925 299.169 70.9575 281.967 65.6315C272.352 62.6545 259.523 61.2935 248.21 62.0515C238.633 62.6935 237.872 62.5945 232.173 59.9715C224.173 56.2885 211.096 55.6605 202.355 58.5375ZM157.19 100.349C155.54 100.525 151.169 101.378 147.476 102.245C141.74 103.59 140.164 104.469 136.65 108.281C131.37 114.009 129.683 118.163 129.721 125.34C129.753 131.387 133.166 141.637 135.39 142.363C136.05 142.579 138.525 140.986 140.89 138.823C146.247 133.923 150.725 131.598 156.407 130.767L160.819 130.122L161.225 123.725C161.672 116.707 162.835 112.334 165.974 105.879C167.109 103.545 167.847 101.472 167.614 101.271C166.844 100.606 160.242 100.023 157.19 100.349ZM121 125.122C121.005 128.422 121.192 129.651 121.415 127.854C121.637 126.057 121.633 123.357 121.405 121.854C121.176 120.351 120.994 121.822 121 125.122ZM136.696 161.342C136.714 167.308 138.97 170.708 149.943 181.308C166.883 197.672 167.374 198.226 169.253 203.147C170.951 207.595 170.938 208.007 168.778 217.41L166.553 227.093L168.715 228.843C172.044 231.539 173.8 229.88 181.123 217.128L187.739 205.606L185.648 200.746C182.951 194.476 178.259 189.987 172.101 187.784C167.783 186.239 167.19 185.684 167.19 183.184C167.19 181.62 167.936 179.87 168.847 179.295C170.991 177.943 177.056 179.702 182.138 183.151L185.873 185.686L192.032 183.255C203.767 178.623 210.69 178.912 210.69 184.035C210.69 187.156 209.084 188.262 203.69 188.856C201.215 189.128 197.513 190.059 195.463 190.926L191.736 192.501L193.145 195.811C194.235 198.371 195.081 199.061 196.873 198.852C198.147 198.703 203.69 198.239 209.19 197.821C220.323 196.975 224.214 195.439 228.046 190.373C231.233 186.16 233.004 179.578 231.801 176.413C230.106 171.956 221.343 166.677 212.243 164.633C207.886 163.654 198.91 164.937 180.512 169.167C162.894 173.218 155.075 172.15 143.295 164.084C137.994 160.454 136.691 159.913 136.696 161.342Z" fill="#498B6D"/>
<path d="M422.688 51.2031C435.719 51.2031 445.469 54.0391 451.938 59.7109C458.453 65.3828 461.711 73.4453 461.711 83.8984C461.711 88.5859 461.031 93.0859 459.672 97.3984C458.359 101.711 456.18 105.555 453.133 108.93C450.133 112.305 446.125 114.977 441.109 116.945C436.141 118.914 430 119.898 422.688 119.898H414.883V154H387.109V51.2031H422.688ZM422.055 73.6328H414.883V97.2578H420.367C422.758 97.2578 424.984 96.8594 427.047 96.0625C429.109 95.2188 430.75 93.8828 431.969 92.0547C433.234 90.1797 433.867 87.6953 433.867 84.6016C433.867 81.3672 432.906 78.7422 430.984 76.7266C429.062 74.6641 426.086 73.6328 422.055 73.6328ZM506.719 72.9297C516.798 72.9297 524.673 75.4375 530.344 80.4531C536.016 85.4219 538.852 92.5234 538.852 101.758V154H519.798L514.524 143.453H513.962C511.712 146.266 509.391 148.562 507.001 150.344C504.657 152.078 501.962 153.344 498.915 154.141C495.868 154.984 492.141 155.406 487.735 155.406C483.141 155.406 479.016 154.469 475.36 152.594C471.704 150.719 468.821 147.883 466.712 144.086C464.602 140.289 463.548 135.484 463.548 129.672C463.548 121.141 466.501 114.812 472.407 110.688C478.313 106.562 486.868 104.242 498.071 103.727L511.36 103.305V102.18C511.36 98.6172 510.469 96.0859 508.688 94.5859C506.954 93.0859 504.61 92.3359 501.657 92.3359C498.516 92.3359 495.001 92.8984 491.11 94.0234C487.266 95.1016 483.399 96.5078 479.508 98.2422L471.563 80.1016C476.157 77.7578 481.36 75.9766 487.173 74.7578C492.985 73.5391 499.501 72.9297 506.719 72.9297ZM511.501 118.422L505.173 118.703C500.11 118.891 496.548 119.781 494.485 121.375C492.469 122.922 491.462 125.148 491.462 128.055C491.462 130.773 492.188 132.789 493.641 134.102C495.094 135.367 497.016 136 499.407 136C502.735 136 505.571 134.945 507.915 132.836C510.305 130.727 511.501 127.984 511.501 124.609V118.422ZM626.4 74.3359V154H605.658L602.212 144.086H600.595C598.954 146.758 596.868 148.938 594.337 150.625C591.853 152.266 589.087 153.461 586.04 154.211C582.993 155.008 579.829 155.406 576.548 155.406C571.345 155.406 566.634 154.398 562.415 152.383C558.243 150.367 554.915 147.203 552.431 142.891C549.993 138.578 548.775 133.023 548.775 126.227V74.3359H576.267V117.859C576.267 123.016 576.993 126.953 578.447 129.672C579.947 132.344 582.384 133.68 585.759 133.68C589.228 133.68 591.9 132.742 593.775 130.867C595.697 128.992 597.033 126.227 597.783 122.57C598.533 118.914 598.908 114.461 598.908 109.211V74.3359H626.4ZM664.236 154H636.744V44.5938H664.236V154ZM750.729 113.992C750.729 120.648 749.815 126.555 747.987 131.711C746.159 136.867 743.51 141.203 740.042 144.719C736.573 148.234 732.378 150.906 727.456 152.734C722.534 154.516 716.979 155.406 710.792 155.406C705.026 155.406 699.729 154.516 694.901 152.734C690.12 150.906 685.948 148.234 682.385 144.719C678.823 141.203 676.057 136.867 674.088 131.711C672.167 126.555 671.206 120.648 671.206 113.992C671.206 105.18 672.799 97.7266 675.987 91.6328C679.221 85.5391 683.815 80.8984 689.768 77.7109C695.768 74.5234 702.917 72.9297 711.213 72.9297C718.854 72.9297 725.651 74.5234 731.604 77.7109C737.557 80.8984 742.221 85.5391 745.596 91.6328C749.018 97.7266 750.729 105.18 750.729 113.992ZM699.12 113.992C699.12 118.539 699.518 122.383 700.315 125.523C701.112 128.617 702.378 130.984 704.112 132.625C705.893 134.219 708.213 135.016 711.073 135.016C713.932 135.016 716.206 134.219 717.893 132.625C719.581 130.984 720.799 128.617 721.549 125.523C722.346 122.383 722.745 118.539 722.745 113.992C722.745 109.445 722.346 105.648 721.549 102.602C720.799 99.5547 719.557 97.2578 717.823 95.7109C716.135 94.1641 713.838 93.3906 710.932 93.3906C706.76 93.3906 703.737 95.125 701.862 98.5938C700.034 102.062 699.12 107.195 699.12 113.992ZM833.996 72.5078C830.715 72.5078 827.785 73.2109 825.207 74.6172C822.629 75.9766 820.426 77.9688 818.598 80.5938C816.769 83.2188 815.363 86.4297 814.379 90.2266C813.441 93.9766 812.973 98.2422 812.973 103.023C812.973 109.492 813.793 114.93 815.433 119.336C817.074 123.742 819.558 127.07 822.887 129.32C826.262 131.57 830.48 132.695 835.543 132.695C840.137 132.695 844.543 132.062 848.762 130.797C853.027 129.531 857.316 128.008 861.629 126.227V149.711C857.082 151.727 852.418 153.18 847.637 154.07C842.902 154.961 837.863 155.406 832.519 155.406C821.363 155.406 812.223 153.203 805.098 148.797C798.019 144.344 792.793 138.18 789.418 130.305C786.09 122.43 784.426 113.289 784.426 102.883C784.426 95.1016 785.504 87.9766 787.66 81.5078C789.863 75.0391 793.074 69.4375 797.293 64.7031C801.512 59.9219 806.715 56.2422 812.902 53.6641C819.137 51.0391 826.262 49.7266 834.277 49.7266C839.246 49.7266 844.473 50.3125 849.957 51.4844C855.488 52.6094 860.879 54.4375 866.129 56.9688L857.621 78.8359C853.871 77.0547 850.074 75.5547 846.23 74.3359C842.387 73.1172 838.308 72.5078 833.996 72.5078ZM907.34 72.9297C915.075 72.9297 921.754 74.2891 927.379 77.0078C933.004 79.6797 937.34 83.7109 940.387 89.1016C943.434 94.4922 944.957 101.242 944.957 109.352V121.586H895.809C896.043 125.758 897.59 129.18 900.45 131.852C903.356 134.523 907.622 135.859 913.247 135.859C918.215 135.859 922.762 135.367 926.887 134.383C931.059 133.398 935.348 131.875 939.754 129.812V149.57C935.911 151.586 931.715 153.062 927.168 154C922.622 154.938 916.879 155.406 909.942 155.406C901.926 155.406 894.754 153.977 888.426 151.117C882.098 148.258 877.106 143.828 873.45 137.828C869.84 131.828 868.036 124.117 868.036 114.695C868.036 105.133 869.676 97.2812 872.957 91.1406C876.239 84.9531 880.832 80.3828 886.739 77.4297C892.645 74.4297 899.512 72.9297 907.34 72.9297ZM908.325 91.6328C905.09 91.6328 902.372 92.6641 900.168 94.7266C898.012 96.7422 896.747 99.9297 896.372 104.289H919.997C919.95 101.945 919.481 99.8125 918.59 97.8906C917.7 95.9688 916.387 94.4453 914.653 93.3203C912.965 92.1953 910.856 91.6328 908.325 91.6328ZM1011.06 129.531C1011.06 134.594 1009.93 139.07 1007.68 142.961C1005.43 146.852 1001.83 149.898 996.857 152.102C991.935 154.305 985.443 155.406 977.38 155.406C971.708 155.406 966.622 155.102 962.122 154.492C957.669 153.883 953.146 152.711 948.552 150.977V128.969C953.568 131.266 958.677 132.93 963.88 133.961C969.083 134.945 973.185 135.438 976.185 135.438C979.278 135.438 981.528 135.109 982.935 134.453C984.388 133.75 985.114 132.719 985.114 131.359C985.114 130.188 984.622 129.203 983.638 128.406C982.7 127.562 980.989 126.602 978.505 125.523C976.068 124.445 972.622 122.992 968.169 121.164C963.763 119.336 960.083 117.344 957.13 115.188C954.224 113.031 952.044 110.453 950.591 107.453C949.138 104.453 948.411 100.773 948.411 96.4141C948.411 88.6328 951.411 82.7734 957.411 78.8359C963.411 74.8984 971.357 72.9297 981.247 72.9297C986.497 72.9297 991.443 73.5156 996.083 74.6875C1000.72 75.8125 1005.53 77.4766 1010.5 79.6797L1002.97 97.3984C999.036 95.6172 995.052 94.1875 991.021 93.1094C986.989 92.0312 983.778 91.4922 981.388 91.4922C979.232 91.4922 977.568 91.7734 976.396 92.3359C975.224 92.8984 974.638 93.7188 974.638 94.7969C974.638 95.7812 975.036 96.6484 975.833 97.3984C976.677 98.1484 978.247 99.0156 980.544 100C982.841 100.984 986.193 102.367 990.599 104.148C995.239 106.023 999.06 108.039 1002.06 110.195C1005.11 112.305 1007.36 114.883 1008.81 117.93C1010.31 120.977 1011.06 124.844 1011.06 129.531ZM1056.63 72.9297C1066.71 72.9297 1074.58 75.4375 1080.26 80.4531C1085.93 85.4219 1088.76 92.5234 1088.76 101.758V154H1069.71L1064.44 143.453H1063.87C1061.62 146.266 1059.3 148.562 1056.91 150.344C1054.57 152.078 1051.87 153.344 1048.83 154.141C1045.78 154.984 1042.05 155.406 1037.65 155.406C1033.05 155.406 1028.93 154.469 1025.27 152.594C1021.61 150.719 1018.73 147.883 1016.62 144.086C1014.51 140.289 1013.46 135.484 1013.46 129.672C1013.46 121.141 1016.41 114.812 1022.32 110.688C1028.22 106.562 1036.78 104.242 1047.98 103.727L1061.27 103.305V102.18C1061.27 98.6172 1060.38 96.0859 1058.6 94.5859C1056.86 93.0859 1054.52 92.3359 1051.57 92.3359C1048.43 92.3359 1044.91 92.8984 1041.02 94.0234C1037.18 95.1016 1033.31 96.5078 1029.42 98.2422L1021.47 80.1016C1026.07 77.7578 1031.27 75.9766 1037.08 74.7578C1042.9 73.5391 1049.41 72.9297 1056.63 72.9297ZM1061.41 118.422L1055.08 118.703C1050.02 118.891 1046.46 119.781 1044.4 121.375C1042.38 122.922 1041.37 125.148 1041.37 128.055C1041.37 130.773 1042.1 132.789 1043.55 134.102C1045.01 135.367 1046.93 136 1049.32 136C1052.65 136 1055.48 134.945 1057.83 132.836C1060.22 130.727 1061.41 127.984 1061.41 124.609V118.422ZM1146.92 72.9297C1148.42 72.9297 1149.99 73.0469 1151.63 73.2812C1153.27 73.4688 1154.49 73.6328 1155.29 73.7734L1152.83 99.7188C1151.94 99.4844 1150.79 99.2969 1149.38 99.1562C1147.97 98.9688 1146.01 98.875 1143.47 98.875C1141.74 98.875 1139.89 99.0391 1137.92 99.3672C1135.95 99.6953 1134.08 100.398 1132.3 101.477C1130.56 102.508 1129.13 104.102 1128.01 106.258C1126.88 108.367 1126.32 111.227 1126.32 114.836V154H1098.83V74.3359H1119.29L1123.58 87.0625H1124.91C1126.37 84.4375 1128.22 82.0703 1130.47 79.9609C1132.76 77.8047 1135.32 76.0938 1138.13 74.8281C1140.99 73.5625 1143.92 72.9297 1146.92 72.9297Z" fill="#33576E"/>
<path fill-rule="evenodd" clip-rule="evenodd" d="M117.31 16.4615C108.722 18.3035 99.8811 22.6975 94.1641 27.9685L89.7861 32.0035L84.9971 27.9985C79.2781 23.2165 69.9071 18.3335 63.7031 16.9035C56.9501 15.3475 43.7991 15.6055 37.6411 17.4145C20.8521 22.3465 8.84314 33.9695 3.15014 50.7965C-0.364863 61.1855 -0.826863 67.0275 1.21014 75.3225C5.03814 90.9055 6.57714 93.0045 33.5741 119.468C47.1231 132.751 64.7141 150.638 72.6651 159.218C82.8031 170.159 87.7721 174.819 89.3001 174.819C90.8061 174.819 95.5671 170.494 104.697 160.831L117.914 146.844L116.711 141.828C116.049 139.07 115.154 136.594 114.722 136.327C114.289 136.06 108.644 141.481 102.176 148.375C95.7081 155.269 89.8951 160.777 89.2581 160.614C88.6211 160.452 81.0941 152.894 72.5321 143.819C63.9701 134.744 48.3271 119.035 37.7711 108.911C16.9181 88.9105 14.0631 84.9945 11.5841 72.9915C9.12314 61.0765 13.6471 46.7865 22.7681 37.6655C39.2561 21.1775 66.3501 22.1855 81.9121 39.8645C88.5211 47.3725 90.7741 47.6295 95.7141 41.4375C106.321 28.1395 124.261 22.6155 139.819 27.8565C143.145 28.9775 147.518 30.9385 149.538 32.2165C154.479 35.3415 161.078 42.6505 163.761 47.9705C164.968 50.3625 166.083 52.4655 166.24 52.6445C166.397 52.8235 168.592 52.6595 171.117 52.2805C176.577 51.4625 176.716 50.7635 172.959 43.0405C166.565 29.8975 152.788 19.5485 137.501 16.4045C128.336 14.5195 126.342 14.5255 117.31 16.4615ZM42.0741 36.8855C29.0991 40.7405 17.3111 58.4025 25.2871 62.0365C28.5741 63.5345 30.6361 62.3325 32.9161 57.5875C35.1581 52.9225 40.8581 48.3175 46.2651 46.8035C48.6541 46.1345 51.4041 44.7095 52.3761 43.6355C53.9781 41.8645 54.0031 41.4325 52.6451 39.0015C50.9791 36.0195 47.4011 35.3035 42.0741 36.8855Z" fill="#BBCF9B"/>
<path d="M395.557 207.876C399.703 207.876 402.728 208.726 404.632 210.425C406.536 212.124 407.488 214.504 407.488 217.566C407.488 218.958 407.269 220.283 406.829 221.543C406.404 222.788 405.701 223.894 404.72 224.861C403.738 225.813 402.442 226.567 400.831 227.124C399.234 227.681 397.264 227.959 394.92 227.959H391.492V240H386.219V207.876H395.557ZM395.206 212.249H391.492V223.564H394.371C396.026 223.564 397.432 223.374 398.589 222.993C399.747 222.598 400.625 221.975 401.226 221.125C401.827 220.276 402.127 219.155 402.127 217.764C402.127 215.903 401.563 214.519 400.435 213.611C399.322 212.703 397.579 212.249 395.206 212.249ZM439.199 231.255C439.199 233.159 438.73 234.8 437.793 236.177C436.87 237.554 435.537 238.608 433.794 239.341C432.065 240.073 430 240.439 427.598 240.439C426.426 240.439 425.305 240.374 424.236 240.242C423.167 240.11 422.156 239.919 421.204 239.67C420.266 239.407 419.409 239.092 418.633 238.726V233.76C419.937 234.331 421.394 234.851 423.005 235.32C424.617 235.774 426.257 236.001 427.927 236.001C429.29 236.001 430.417 235.825 431.311 235.474C432.219 235.107 432.893 234.595 433.333 233.936C433.772 233.262 433.992 232.478 433.992 231.584C433.992 230.632 433.735 229.827 433.223 229.167C432.71 228.508 431.934 227.908 430.894 227.366C429.868 226.809 428.579 226.216 427.026 225.586C425.972 225.161 424.961 224.678 423.994 224.136C423.042 223.594 422.192 222.957 421.445 222.224C420.698 221.492 420.105 220.627 419.666 219.631C419.241 218.621 419.028 217.434 419.028 216.072C419.028 214.255 419.46 212.703 420.325 211.414C421.204 210.125 422.434 209.136 424.016 208.447C425.613 207.759 427.473 207.415 429.597 207.415C431.282 207.415 432.864 207.59 434.343 207.942C435.837 208.293 437.302 208.792 438.738 209.436L437.068 213.677C435.75 213.135 434.468 212.703 433.223 212.38C431.992 212.058 430.732 211.897 429.443 211.897C428.33 211.897 427.385 212.065 426.609 212.402C425.833 212.739 425.239 213.215 424.829 213.831C424.434 214.431 424.236 215.149 424.236 215.984C424.236 216.921 424.463 217.712 424.917 218.357C425.386 218.987 426.104 219.565 427.07 220.093C428.052 220.62 429.312 221.206 430.85 221.851C432.622 222.583 434.124 223.352 435.354 224.158C436.599 224.963 437.551 225.93 438.21 227.058C438.87 228.171 439.199 229.57 439.199 231.255ZM452.146 240V207.876H457.419V240H452.146ZM486.339 211.897C484.801 211.897 483.424 212.175 482.208 212.732C481.007 213.289 479.989 214.094 479.154 215.149C478.319 216.189 477.682 217.456 477.243 218.95C476.803 220.43 476.583 222.1 476.583 223.96C476.583 226.45 476.935 228.596 477.638 230.398C478.341 232.185 479.411 233.562 480.846 234.529C482.282 235.481 484.098 235.957 486.295 235.957C487.658 235.957 488.983 235.825 490.272 235.562C491.562 235.298 492.895 234.939 494.271 234.485V238.967C492.968 239.48 491.649 239.854 490.316 240.088C488.983 240.322 487.445 240.439 485.702 240.439C482.421 240.439 479.696 239.758 477.528 238.396C475.375 237.034 473.764 235.115 472.694 232.639C471.64 230.164 471.112 227.263 471.112 223.938C471.112 221.506 471.449 219.28 472.123 217.258C472.797 215.237 473.778 213.494 475.067 212.029C476.356 210.549 477.946 209.414 479.835 208.623C481.74 207.817 483.915 207.415 486.361 207.415C487.973 207.415 489.555 207.598 491.107 207.964C492.675 208.315 494.125 208.821 495.458 209.48L493.612 213.831C492.499 213.303 491.334 212.849 490.119 212.468C488.903 212.087 487.643 211.897 486.339 211.897ZM536.441 223.894C536.441 226.37 536.126 228.625 535.497 230.662C534.881 232.683 533.951 234.426 532.706 235.891C531.461 237.341 529.901 238.462 528.026 239.253C526.151 240.044 523.954 240.439 521.434 240.439C518.871 240.439 516.644 240.044 514.754 239.253C512.879 238.462 511.319 237.334 510.074 235.869C508.844 234.404 507.921 232.654 507.306 230.618C506.69 228.582 506.383 226.326 506.383 223.85C506.383 220.54 506.925 217.654 508.009 215.193C509.107 212.717 510.77 210.798 512.997 209.436C515.238 208.059 518.065 207.371 521.478 207.371C524.818 207.371 527.594 208.052 529.806 209.414C532.018 210.776 533.673 212.695 534.771 215.171C535.885 217.632 536.441 220.54 536.441 223.894ZM511.92 223.894C511.92 226.37 512.257 228.516 512.931 230.332C513.604 232.134 514.637 233.525 516.029 234.507C517.435 235.474 519.237 235.957 521.434 235.957C523.646 235.957 525.448 235.474 526.839 234.507C528.231 233.525 529.256 232.134 529.916 230.332C530.575 228.516 530.904 226.37 530.904 223.894C530.904 220.129 530.15 217.185 528.641 215.061C527.147 212.922 524.759 211.853 521.478 211.853C519.281 211.853 517.472 212.336 516.051 213.303C514.645 214.27 513.604 215.654 512.931 217.456C512.257 219.243 511.92 221.389 511.92 223.894ZM528.927 197.703V198.142C528.575 198.567 528.099 199.08 527.499 199.68C526.898 200.266 526.246 200.889 525.543 201.548C524.84 202.192 524.144 202.815 523.456 203.416C522.767 204.001 522.145 204.5 521.588 204.91H518.138V204.338C518.622 203.782 519.156 203.115 519.742 202.339C520.343 201.562 520.929 200.764 521.5 199.944C522.086 199.124 522.577 198.376 522.972 197.703H528.927ZM550.091 240V207.876H555.364V235.518H569.009V240H550.091ZM609.839 223.894C609.839 226.37 609.524 228.625 608.894 230.662C608.279 232.683 607.349 234.426 606.104 235.891C604.858 237.341 603.298 238.462 601.423 239.253C599.548 240.044 597.351 240.439 594.832 240.439C592.268 240.439 590.042 240.044 588.152 239.253C586.277 238.462 584.717 237.334 583.472 235.869C582.241 234.404 581.318 232.654 580.703 230.618C580.088 228.582 579.78 226.326 579.78 223.85C579.78 220.54 580.322 217.654 581.406 215.193C582.505 212.717 584.167 210.798 586.394 209.436C588.635 208.059 591.462 207.371 594.875 207.371C598.215 207.371 600.991 208.052 603.203 209.414C605.415 210.776 607.07 212.695 608.169 215.171C609.282 217.632 609.839 220.54 609.839 223.894ZM585.317 223.894C585.317 226.37 585.654 228.516 586.328 230.332C587.002 232.134 588.035 233.525 589.426 234.507C590.833 235.474 592.634 235.957 594.832 235.957C597.043 235.957 598.845 235.474 600.237 234.507C601.628 233.525 602.654 232.134 603.313 230.332C603.972 228.516 604.302 226.37 604.302 223.894C604.302 220.129 603.547 217.185 602.039 215.061C600.544 212.922 598.157 211.853 594.875 211.853C592.678 211.853 590.869 212.336 589.448 213.303C588.042 214.27 587.002 215.654 586.328 217.456C585.654 219.243 585.317 221.389 585.317 223.894ZM636.452 222.554H648.449V238.682C646.765 239.238 645.021 239.67 643.22 239.978C641.418 240.286 639.396 240.439 637.155 240.439C633.889 240.439 631.12 239.795 628.85 238.506C626.594 237.202 624.88 235.32 623.708 232.859C622.536 230.383 621.95 227.402 621.95 223.916C621.95 220.562 622.602 217.654 623.906 215.193C625.209 212.717 627.106 210.806 629.597 209.458C632.087 208.096 635.104 207.415 638.649 207.415C640.393 207.415 642.077 207.59 643.703 207.942C645.344 208.279 646.845 208.748 648.208 209.348L646.362 213.699C645.278 213.186 644.062 212.754 642.714 212.402C641.367 212.051 639.968 211.875 638.518 211.875C636.218 211.875 634.233 212.373 632.563 213.369C630.908 214.365 629.633 215.771 628.74 217.588C627.846 219.39 627.399 221.521 627.399 223.982C627.399 226.37 627.758 228.464 628.476 230.266C629.194 232.068 630.314 233.474 631.838 234.485C633.376 235.481 635.361 235.979 637.792 235.979C639.008 235.979 640.041 235.913 640.891 235.781C641.74 235.649 642.524 235.503 643.242 235.342V227.058H636.452V222.554ZM691.41 223.894C691.41 226.37 691.095 228.625 690.465 230.662C689.85 232.683 688.92 234.426 687.675 235.891C686.43 237.341 684.87 238.462 682.995 239.253C681.12 240.044 678.922 240.439 676.403 240.439C673.839 240.439 671.613 240.044 669.723 239.253C667.848 238.462 666.288 237.334 665.043 235.869C663.812 234.404 662.89 232.654 662.274 230.618C661.659 228.582 661.352 226.326 661.352 223.85C661.352 220.54 661.894 217.654 662.978 215.193C664.076 212.717 665.739 210.798 667.965 209.436C670.207 208.059 673.034 207.371 676.447 207.371C679.787 207.371 682.562 208.052 684.774 209.414C686.986 210.776 688.642 212.695 689.74 215.171C690.854 217.632 691.41 220.54 691.41 223.894ZM666.889 223.894C666.889 226.37 667.226 228.516 667.899 230.332C668.573 232.134 669.606 233.525 670.998 234.507C672.404 235.474 674.206 235.957 676.403 235.957C678.615 235.957 680.417 235.474 681.808 234.507C683.2 233.525 684.225 232.134 684.884 230.332C685.543 228.516 685.873 226.37 685.873 223.894C685.873 220.129 685.119 217.185 683.61 215.061C682.116 212.922 679.728 211.853 676.447 211.853C674.25 211.853 672.44 212.336 671.02 213.303C669.613 214.27 668.573 215.654 667.899 217.456C667.226 219.243 666.889 221.389 666.889 223.894Z" fill="#33576E"/>
</svg>
